# xmcd
#
# Track frame offsets:
#	150
#	18139
#	40362
#	59002
#	83687
#	111676
#	128529
#	147104
#	169889
#	192152
#	206743
#	225879
#	243872
#	265821
#	286256
#	300640
#
# Disc length: 4316 seconds
#
# Revision: 4
# Processed by: cddbd v1.5.2PL0 Copyright (c) Steve Scherf et al.
# Submitted via: EasyCDDAExtractor 16.1.0.1
#
DISCID=d910da10
DTITLE=Чернила для пятого класса - Клякса на синем небе
DYEAR=2000
DGENRE=Pop
TTITLE0=Стекловата
TTITLE1=Ветер
TTITLE2=Люби меня (ремикс)
TTITLE3=Письмо (новая версия)
TTITLE4=Я так устал
TTITLE5=Снег в сентябре
TTITLE6=Змей
TTITLE7=Месяц осени
TTITLE8=Пусть, увы...
TTITLE9=Zim-zim
TTITLE10=Пятый угол
TTITLE11=Не подпишусь
TTITLE12=Бред
TTITLE13=Пусть грязь
TTITLE14=Я откровенен
TTITLE15=Intro один
EXTD=
EXTT0=
EXTT1=
EXTT2=
EXTT3=
EXTT4=
EXTT5=
EXTT6=
EXTT7=
EXTT8=
EXTT9=
EXTT10=
EXTT11=
EXTT12=
EXTT13=
EXTT14=
EXTT15=
PLAYORDER=
